<?xml version="1.0" encoding="UTF-8"?>
<!--Generator: Apple Native CoreSVG 341-->
<!DOCTYPE svg
PUBLIC "-//W3C//DTD SVG 1.1//EN"
       "http://www.w3.org/Graphics/SVG/1.1/DTD/svg11.dtd">
<svg version="1.1" xmlns="http://www.w3.org/2000/svg" xmlns:xlink="http://www.w3.org/1999/xlink" viewBox="0 0 531.8 617.879">
 <g>
  <rect height="617.879" opacity="0" width="531.8" x="0" y="0"/>
  <path d="M403.473 245.585C433.014 245.585 456.94 221.659 456.94 192.118C456.94 162.577 433.014 138.651 403.473 138.651C373.932 138.651 350.251 162.577 350.251 192.118C350.251 221.659 373.932 245.585 403.473 245.585ZM266.022 15.6045C243.073-7.58883 215.729-6.36812 180.085 29.0323C160.309 49.2959 149.811 90.0674 143.463 119.12L107.331 155.497C96.1001 166.728 98.5415 182.108 108.551 192.118L180.573 263.896C185.211 268.046 191.071 270.731 197.907 270.731L246.735 270.731C248.444 270.731 249.176 273.417 247.711 274.149L196.93 299.54C153.717 320.78 143.708 378.153 187.653 410.624L277.985 476.542L225.495 581.523C219.391 593.73 224.274 608.866 236.237 614.726C247.467 620.341 262.604 616.923 269.44 603.739L329.987 482.646C334.87 472.636 335.846 460.429 324.86 449.442L252.106 376.933L346.833 329.814C351.471 327.372 356.598 328.349 359.772 331.767L489.899 461.649C499.665 471.415 515.778 470.927 524.567 461.649C534.088 451.884 534.333 436.503 524.567 426.737L332.672 234.843C324.127 226.298 315.094 221.415 303.131 221.415L208.161 221.415L143.952 157.206L162.995 138.163C192.047 132.06 233.063 121.562 252.594 101.542C288.483 66.1416 289.704 38.5538 266.022 15.6045ZM247.223 34.8916C259.919 47.3428 255.768 59.794 233.551 82.4991C219.635 96.1709 193.512 102.519 173.737 108.378C179.108 88.1143 185.7 62.4795 199.616 48.3194C222.077 25.8584 234.04 22.1963 247.223 34.8916ZM24.8111 518.29L148.59 518.29C159.088 518.29 167.633 510.722 172.028 501.689L198.883 447.733L173.737 429.423C163.727 421.855 156.647 414.53 151.276 406.718L130.524 468.73L24.8111 468.73C11.3833 468.73 0.152878 479.96 0.152878 493.388C0.152878 507.548 11.3833 518.29 24.8111 518.29Z" fill="white" fill-opacity="0.85"/>
 </g>
</svg>
